{"title":"Geordie Shore S10E05 WEB-DL","uid":11888238,"size":506425980,"categoryP":"video","categoryS":"tv_shows","magnet":"?xt=urn:btih:77c1d8385a54e732fdd733a20f8127f37d35cd72&amp;dn=Geordie+Shore+S10E05+WEB-DL&amp;tr=udp%3A%2F%2Ftracker.openbittorrent.com%3A80&amp;tr=udp%3A%2F%2Fopen.demonii.com%3A1337&amp;tr=udp%3A%2F%2Ftracker.coppersurfer.tk%3A6969&amp;tr=udp%3A%2F%2Fexodus.desync.com%3A6969","seeders":173,"leechers":4,"uploader":"jmanwf","files":2,"time":1430900503,"description":"Anna tells the Geordies she's got a job for them in another Country they're all buzzing! That is until they turn up to a Caravan site in Wales Marnie decides to give Aaron some home truths.\n\n\n\nVideo\nID : 2\nFormat : AVC\nFormat/Info : Advanced Video Codec\nFormat profile : Baseline@L3\nFormat settings, CABAC : No\nFormat settings, ReFrames : 1 frame\nCodec ID : avc1\nCodec ID/Info : Advanced Video Coding\nDuration : 42mn 24s\nBit rate : 1 464 Kbps\nWidth : 640 pixels\nHeight : 480 pixels\nDisplay aspect ratio : 16:9\nFrame rate mode : Constant\nFrame rate : 25.000 fps\nColor space : YUV\nChroma subsampling : 4:2:0\nBit depth : 8 bits\nScan type : Progressive\nBits/(Pixel*Frame) : 0.191\nStream size : 444 MiB (92%)\nLanguage : English\nEncoded date : UTC 2015-05-06 04:37:55\nTagged date : UTC 2015-05-06 04:39:58\nColor range : Limited\nColor primaries : BT.601 NTSC\nTransfer characteristics : BT.709\nMatrix coefficients : BT.601\n\nAudio\nID : 1\nFormat : AAC\nFormat/Info : Advanced Audio Codec\nFormat profile : LC\nCodec ID : 40\nDuration : 42mn 24s\nDuration_LastFrame : -5ms\nBit rate mode : Variable\nBit rate : 125 Kbps\nMaximum bit rate : 203 Kbps\nChannel(s) : 2 channels\nChannel positions : Front: L R\nSampling rate : 44.1 KHz\nCompression mode : Lossy\nStream size : 38.0 MiB (8%)\nLanguage : English\nEncoded date : UTC 2015-05-06 04:37:55\nTagged date : UTC 2015-05-06 04:39:58\n\nText\nID : 3-CC1\nFormat : EIA-608\nMuxing mode : Final Cut\nCodec ID : c608\nDuration : 42mn 22s\nBit rate mode : Constant\nStream size : 0.00 Byte (0%)\nLanguage : English\nEncoded date : UTC 2015-05-06 04:37:55\nTagged date : UTC 2015-05-06 04:39:04\n\n\n\n\n &lt;a href=&quot;\nhttps://itunes.apple.com/gb/tv-season/geordie-shore-season-10/id979550691&quot; rel=&quot;nofollow&quot; target=&quot;_NEW&quot;&gt;\nhttps://itunes.apple.com/gb/tv-season/geordie-shore-season-10/id979550691&lt;/a&gt;","torrent":{"xt":"urn:btih:77c1d8385a54e732fdd733a20f8127f37d35cd72","amp;dn":"Geordie+Shore+S10E05+WEB-DL","amp;tr":["udp%3A%2F%2Ftracker.openbittorrent.com%3A80","udp%3A%2F%2Fopen.demonii.com%3A1337","udp%3A%2F%2Ftracker.coppersurfer.tk%3A6969","udp%3A%2F%2Fexodus.desync.com%3A6969"],"infoHash":"77c1d8385a54e732fdd733a20f8127f37d35cd72","infoHashBuffer":{"type":"Buffer","data":[119,193,216,56,90,84,231,50,253,215,51,162,15,129,39,243,125,53,205,114]},"announce":[],"urlList":[]}}